#!OML:ASF H:\Terrain\Patient Classification 1\Walking\liu\liu.ASF
:FULLY-SPECIFIED
:DEGREES
227
root 13.034624 24.300751 -7.899525 15.578850 -6.180000 -12.040936
lowerback -14.147730 4.605180 6.986190
upperback -2.269290 5.174055 5.831715
thorax 5.612280 2.622285 2.798655
lowerneck -24.375601 -9.013395 -20.914200
upperneck 23.324400 -11.621340 22.396950
head 13.029480 -4.659630 9.680280
rclavicle 0.000000 0.000000
rhumerus -61.492050 20.569201 -130.376999
rradius 77.181450
rwrist -37.672951
rhand -47.761051 -45.145950
rfingers 10.687531
rthumb -7.642440 -90.024155
lclavicle 0.000000 0.000000
lhumerus -77.963402 -12.289515 141.649506
lradius 35.912552
lwrist 6.021225
lhand -9.932940 -35.516102
lfingers 10.687531
lthumb 28.851601 8.087100
rfemur 26.243849 11.075535 47.287201
rtibia 0.000000
rfoot -15.954750 11.612370
rtoes -18.668400
lfemur -72.140549 8.271720 -18.637501
ltibia 42.629398
lfoot -9.740459 19.081051
ltoes -21.321600
228
root 13.066890 24.270601 -7.636245 15.811950 -6.385455 -11.822520
lowerback -14.211016 4.557810 6.635220
upperback -2.295465 5.151285 5.645535
thorax 5.610930 2.607585 2.798925
lowerneck -24.859800 -8.981565 -20.662649
upperneck 23.328600 -11.584860 22.417950
head 13.104014 -4.605870 9.646065
rclavicle 0.000000 0.000000
rhumerus -61.596748 20.206800 -130.756348
rradius 76.594498
rwrist -37.243202
rhand -48.243153 -46.270199
rfingers 10.687531
rthumb -8.107815 -91.136703
lclavicle 0.000000 0.000000
lhumerus -77.520004 -11.635020 140.478745
lradius 35.581047
lwrist 4.365960
lhand -11.680335 -35.845951
lfingers 10.687531
lthumb 27.170849 7.918845
rfemur 27.017849 11.015039 46.855801
rtibia -0.000000
rfoot -15.586050 11.663160
rtoes -20.773951
lfemur -73.116745 9.992790 -20.040751
ltibia 44.512199
lfoot -5.846700 17.740349
ltoes -19.399351
229
root 13.099695 24.204750 -7.401660 15.896550 -6.408345 -11.496615
lowerback -13.722916 4.373955 6.071775
upperback -2.526960 5.016870 5.517360
thorax 5.073690 2.531385 2.922375
lowerneck -24.645000 -8.881560 -20.645550
upperneck 23.191650 -11.497260 22.591650
head 13.012545 -4.557675 9.716715
rclavicle 0.000000 -0.000000
rhumerus -62.010300 19.933350 -131.131500
rradius 76.227753
rwrist -36.994801
rhand -48.112801 -47.993099
rfingers 10.687531
rthumb -7.981965 -92.862900
lclavicle 0.000000 -0.000000
lhumerus -77.567848 -11.329935 139.882813
lradius 35.262600
lwrist 3.503610
lhand -13.259806 -36.182102
lfingers 10.687531
lthumb 25.650898 7.719015
rfemur 27.858002 10.730910 46.369801
rtibia -0.000000
rfoot -14.279820 11.699460
rtoes -20.266649
lfemur -74.108246 11.143275 -21.220051
ltibia 46.658249
lfoot -3.093210 16.695450
ltoes -20.788950
230
root 13.136715 24.184799 -7.151865 16.060051 -6.382395 -11.112781
lowerback -13.511415 4.269120 5.533725
upperback -2.766255 4.961505 5.382135
thorax 4.685205 2.496900 3.052260
lowerneck -24.683102 -8.911635 -20.646450
upperneck 23.376150 -11.553946 22.582951
head 13.089990 -4.582425 9.710939
rclavicle -0.000000 -0.000000
rhumerus -62.988152 19.611000 -131.297104
rradius 76.502396
rwrist -37.108200
rhand -47.379448 -48.537151
rfingers 10.687531
rthumb -7.273950 -93.423904
lclavicle -0.000000 -0.000000
lhumerus -77.727295 -11.627371 139.926453
lradius 34.961548
lwrist 3.499770
lhand -12.784215 -35.268452
lfingers 10.687531
lthumb 26.108551 8.592586
rfemur 28.491299 10.422705 45.717598
rtibia 0.000000
rfoot -12.967800 11.642775
rtoes -16.842600
lfemur -74.749649 11.510160 -21.965401
ltibia 48.739647
lfoot -1.204366 16.305300
ltoes -19.789499
231
root 13.175985 24.172800 -6.869940 16.107601 -6.371880 -10.945681
lowerback -13.738605 4.139415 5.342265
upperback -2.636070 4.791255 5.244855
thorax 4.945365 2.412585 3.013545
lowerneck -25.223850 -8.922585 -20.393250
upperneck 23.520599 -11.569215 22.511551
head 13.225935 -4.557840 9.639270
rclavicle 0.000000 0.000000
rhumerus -63.354897 19.218300 -131.557037
rradius 76.315201
rwrist -36.896851
rhand -46.993050 -50.544601
rfingers 10.687531
rthumb -6.900826 -95.439598
lclavicle 0.000000 0.000000
lhumerus -77.191055 -11.416035 139.459351
lradius 34.359150
lwrist 3.202485
lhand -15.653850 -37.841099
lfingers 10.687531
lthumb 23.345699 6.249570
rfemur 29.368801 10.152240 45.266102
rtibia -0.000000
rfoot -12.025049 11.569035
rtoes -16.761450
lfemur -75.021301 11.991150 -22.549650
ltibia 50.682598
lfoot 0.266568 15.287850
ltoes -18.932701
232
root 13.219125 24.152401 -6.587730 16.175249 -6.303000 -10.486860
lowerback -14.069759 3.904905 4.934790
upperback -2.551305 4.504305 5.004735
thorax 5.211495 2.268060 2.976735
lowerneck -25.752151 -8.912849 -20.319599
upperneck 23.720850 -11.552114 22.600201
head 13.388474 -4.514415 9.664246
rclavicle -0.000000 0.000000
rhumerus -63.663750 18.922501 -131.899948
rradius 75.756752
rwrist -36.501301
rhand -46.311150 -52.448101
rfingers 10.687531
rthumb -6.242400 -97.356750
lclavicle -0.000000 0.000000
lhumerus -76.591049 -10.873606 138.640045
lradius 33.608250
lwrist 2.304255
lhand -12.063435 -36.547501
lfingers 10.687531
lthumb 26.802149 7.251255
rfemur 30.226349 9.784530 44.519699
rtibia -0.000000
rfoot -10.618425 11.434845
rtoes -17.211750
lfemur -75.542702 12.639195 -23.671949
ltibia 52.805702
lfoot 1.265278 13.653315
ltoes -16.471199
233
root 13.262070 24.134098 -6.331005 16.383301 -6.006900 -9.961994
lowerback -13.952145 3.732390 4.506735
upperback -2.944275 4.350300 4.771785
thorax 4.729695 2.185950 2.934435
lowerneck -25.538101 -8.973750 -20.495701
upperneck 23.770802 -11.614290 22.554600
head 13.381081 -4.567380 9.671715
rclavicle -0.000000 0.000000
rhumerus -65.033554 18.566250 -132.087906
rradius 75.754349
rwrist -36.552750
rhand -45.232651 -53.125046
rfingers 10.687531
rthumb -5.200905 -98.052307
lclavicle -0.000000 0.000000
lhumerus -76.746300 -10.984875 138.252441
lradius 33.325798
lwrist 1.733850
lhand -9.803160 -36.130199
lfingers 10.687531
lthumb 28.976400 7.460625
rfemur 30.765602 9.205230 43.738201
rtibia 0.000000
rfoot -8.891040 11.110410
rtoes -20.696701
lfemur -76.223701 12.640545 -24.610500
ltibia 54.711147
lfoot 1.812720 12.454454
ltoes -12.927210
234
root 13.345350 24.129749 -5.958420 16.193550 -6.371895 -9.383986
lowerback -14.677425 3.776235 4.408365
upperback -2.911035 4.385100 4.546665
thorax 5.172600 2.203350 2.797740
lowerneck -25.156052 -8.993731 -20.682600
upperneck 23.559000 -11.603565 22.487099
head 13.242479 -4.597410 9.676800
rclavicle 0.000000 0.000000
rhumerus -66.026550 17.823450 -131.941956
rradius 75.189301
rwrist -36.057899
rhand -44.098053 -53.704948
rfingers 10.687531
rthumb -4.105080 -98.648254
lclavicle 0.000000 0.000000
lhumerus -76.875000 -10.529910 137.764801
lradius 33.082951
lwrist 0.700956
lhand -10.111876 -36.285599
lfingers 10.687531
lthumb 28.679550 7.334790
rfemur 32.202599 9.258884 42.566399
rtibia -0.000000
rfoot -7.814700 11.028855
rtoes -23.514900
lfemur -75.726448 12.931755 -25.750050
ltibia 56.724754
lfoot 0.512643 11.527815
ltoes -11.280510
235
root 13.369815 24.135601 -5.742435 16.149450 -6.081346 -9.512760
lowerback -13.716270 3.528375 4.080450
upperback -3.283755 4.146930 4.765815
thorax 4.228830 2.080200 3.119325
lowerneck -25.292698 -8.923470 -20.945250
upperneck 23.702549 -11.517420 22.871250
head 13.331055 -4.531365 9.879854
rclavicle 0.000000 0.000000
rhumerus -66.607651 17.173201 -131.847305
rradius 74.192398
rwrist -35.324402
rhand -43.413452 -48.266701
rfingers 10.687531
rthumb -3.443925 -93.217796
lclavicle 0.000000 0.000000
lhumerus -76.634705 -9.764940 137.224045
lradius 32.391602
lwrist -0.740412
lhand -10.660245 -36.332699
lfingers 10.687531
lthumb 28.152151 7.339140
rfemur 32.744251 8.723400 42.626099
rtibia -0.000000
rfoot -5.983245 10.480545
rtoes -25.792198
lfemur -76.069649 13.190805 -25.931700
ltibia 58.524452
lfoot -0.165378 10.682835
ltoes -10.040054
236
root 13.418475 24.145950 -5.474655 16.100101 -5.941815 -9.149820
lowerback -13.527029 3.416385 3.736845
upperback -3.346830 4.045725 4.666635
thorax 4.049370 2.028105 3.185820
lowerneck -25.973700 -8.998065 -21.281250
upperneck 23.989500 -11.578035 23.330999
head 13.599510 -4.508190 10.105110
rclavicle -0.000000 -0.000000
rhumerus -67.074753 17.073900 -131.965958
rradius 73.441650
rwrist -35.650200
rhand -43.244400 -39.159298
rfingers 10.687531
rthumb -3.280710 -84.112198
lclavicle -0.000000 -0.000000
lhumerus -75.958206 -9.466934 136.870804
lradius 31.673100
lwrist -1.634520
lhand -10.196085 -35.968201
lfingers 10.687531
lthumb 28.598551 7.660125
rfemur 33.450600 8.296350 41.968498
rtibia 0.000000
rfoot -3.709215 9.883184
rtoes -25.952700
lfemur -76.078506 13.629089 -26.930401
ltibia 60.376053
lfoot -1.069989 9.806640
ltoes -8.064014
237
root 13.480845 24.167101 -5.179620 15.904950 -5.985915 -8.397449
lowerback -13.769895 3.395430 3.351555
upperback -3.058095 4.043490 4.314735
thorax 4.483125 2.025645 3.056130
lowerneck -26.870550 -9.288570 -21.378300
upperneck 24.035252 -11.858370 23.368799
head 13.833645 -4.604400 10.090034
rclavicle -0.000000 -0.000000
rhumerus -67.083900 16.401451 -131.771545
rradius 72.769051
rwrist -36.078602
rhand -42.762150 -35.004002
rfingers 10.687531
rthumb -2.814930 -79.961250
lclavicle -0.000000 -0.000000
lhumerus -75.001205 -9.321390 136.364395
lradius 31.335749
lwrist -2.561520
lhand -10.090590 -35.760002
lfingers 10.687531
lthumb 28.699951 7.858335
rfemur 34.395451 8.000521 40.753201
rtibia 0.000000
rfoot -1.143102 9.257520
rtoes -24.397198
lfemur -75.410400 13.987366 -28.340099
ltibia 61.681496
lfoot -2.185185 9.078450
ltoes -5.244750
238
root 13.527975 24.194099 -4.939395 15.624450 -6.144405 -7.992105
lowerback -13.124401 3.384000 3.054915
upperback -3.131520 4.094130 4.065660
thorax 4.047180 2.049690 2.937015
lowerneck -27.191099 -9.423571 -21.000000
upperneck 24.192749 -12.050640 23.002048
head 13.943399 -4.690875 9.861300
rclavicle 0.000000 -0.000000
rhumerus -67.385254 15.100500 -131.585846
rradius 71.812798
rwrist -35.619450
rhand -43.305752 -36.480598
rfingers 10.687531
rthumb -3.339990 -81.432755
lclavicle 0.000000 -0.000000
lhumerus -74.512497 -9.448635 135.821259
lradius 31.006050
lwrist -3.528840
lhand -10.649879 -35.737648
lfingers 10.687531
lthumb 28.162050 7.933305
rfemur 35.164799 7.829190 40.034698
rtibia -0.000000
rfoot 1.858995 8.295540
rtoes -23.812801
lfemur -74.683502 14.078430 -28.918499
ltibia 62.733902
lfoot -3.294930 8.684236
ltoes -2.157600
239
root 13.559565 24.218851 -4.761915 15.563250 -6.145800 -7.973804
lowerback -11.886150 3.275610 2.796570
upperback -3.385740 4.029900 4.080645
thorax 3.086895 2.017680 3.026205
lowerneck -28.077751 -9.555540 -20.551949
upperneck 24.849449 -12.201090 22.438801
head 14.307135 -4.746045 9.566504
rclavicle 0.000000 0.000000
rhumerus -67.541100 14.656005 -131.824051
rradius 70.481850
rwrist -35.750851
rhand -45.904949 -37.870049
rfingers 10.687531
rthumb -5.850120 -82.786201
lclavicle 0.000000 0.000000
lhumerus -73.649399 -9.009450 135.084290
lradius 30.163799
lwrist -5.359305
lhand -11.133345 -35.727001
lfingers 10.687531
lthumb 27.697052 7.988475
rfemur 35.438549 7.547460 39.900898
rtibia -0.000000
rfoot 5.292345 6.870960
rtoes -25.227001
lfemur -74.396851 14.214344 -29.017799
ltibia 63.394196
lfoot -3.879450 8.096550
ltoes -1.456375
240
root 13.619625 24.242701 -4.506510 15.362700 -6.200055 -7.259385
lowerback -11.658540 3.121170 2.170215
upperback -3.247185 3.880920 3.964890
thorax 3.084945 1.942395 3.236715
lowerneck -29.152500 -9.689475 -20.652451
upperneck 25.448101 -12.256094 22.280701
head 14.717310 -4.746705 9.529500
rclavicle -0.000000 0.000000
rhumerus -67.566902 15.013350 -132.119247
rradius 69.322952
rwrist -37.141651
rhand -47.844299 -35.026649
rfingers 10.687531
rthumb -7.722735 -79.902901
lclavicle -0.000000 0.000000
lhumerus -72.557549 -8.245725 134.508896
lradius 29.531851
lwrist -7.221795
lhand -11.894341 -36.205952
lfingers 10.687531
lthumb 26.964901 7.577790
rfemur 36.177601 7.245855 38.867550
rtibia 0.000000
rfoot 8.502960 5.606505
rtoes -26.578051
lfemur -73.451553 14.479710 -30.151949
ltibia 63.810299
lfoot -4.910880 7.359150
ltoes -3.695025
